<svg xmlns="http://www.w3.org/2000/svg" xmlns:xlink="http://www.w3.org/1999/xlink" width="2000" zoomAndPan="magnify" viewBox="0 0 1500 1499.999933" height="2000" preserveAspectRatio="xMidYMid meet" version="1.0"><defs><clipPath id="c7e0c57d95"><path d="M 1.078125 37 L 1153 37 L 1153 1152.867188 L 1.078125 1152.867188 Z M 1.078125 37 " clip-rule="nonzero"/></clipPath><clipPath id="651bb07808"><path d="M 469 1.453125 L 685 1.453125 L 685 217 L 469 217 Z M 469 1.453125 " clip-rule="nonzero"/></clipPath><clipPath id="823e21a5d8"><path d="M 345.792969 345.792969 L 808.207031 345.792969 L 808.207031 808.207031 L 345.792969 808.207031 Z M 345.792969 345.792969 " clip-rule="nonzero"/></clipPath><clipPath id="3ef584cdd4"><path d="M 577 345.792969 C 449.308594 345.792969 345.792969 449.308594 345.792969 577 C 345.792969 704.691406 449.308594 808.207031 577 808.207031 C 704.691406 808.207031 808.207031 704.691406 808.207031 577 C 808.207031 449.308594 704.691406 345.792969 577 345.792969 Z M 577 345.792969 " clip-rule="nonzero"/></clipPath><clipPath id="c24360ca69"><path d="M 0.792969 0.792969 L 463.207031 0.792969 L 463.207031 463.207031 L 0.792969 463.207031 Z M 0.792969 0.792969 " clip-rule="nonzero"/></clipPath><clipPath id="852d78a534"><path d="M 232 0.792969 C 104.308594 0.792969 0.792969 104.308594 0.792969 232 C 0.792969 359.691406 104.308594 463.207031 232 463.207031 C 359.691406 463.207031 463.207031 359.691406 463.207031 232 C 463.207031 104.308594 359.691406 0.792969 232 0.792969 Z M 232 0.792969 " clip-rule="nonzero"/></clipPath><clipPath id="8eb096e7d1"><rect x="0" width="464" y="0" height="464"/></clipPath><clipPath id="c8d0474fa9"><rect x="0" width="1154" y="0" height="1154"/></clipPath></defs><rect x="-150" width="1800" fill="#ffffff" y="-149.999993" height="1799.99992" fill-opacity="1"/><rect x="-150" width="1800" fill="#ffffff" y="-149.999993" height="1799.99992" fill-opacity="1"/><g transform="matrix(1, 0, 0, 1, 173, 173)"><g clip-path="url(#c8d0474fa9)"><g clip-path="url(#c7e0c57d95)"><path fill="#00357a" d="M 1152.726562 576.859375 C 1152.726562 329.355469 995.433594 118.457031 775.804688 37.25 C 783.976562 59.75 788.65625 83.898438 788.65625 109.179688 C 788.65625 164.546875 767.109375 214.859375 732.1875 252.621094 C 853.0625 310.71875 936.90625 434.019531 936.90625 576.859375 C 936.90625 775.3125 775.445312 936.765625 576.996094 936.765625 C 378.542969 936.765625 217.082031 775.3125 217.082031 576.859375 C 217.082031 434.019531 300.933594 310.71875 421.800781 252.621094 C 386.867188 214.859375 365.324219 164.550781 365.324219 109.179688 C 365.324219 83.898438 370.015625 59.75 378.175781 37.25 C 158.554688 118.457031 1.265625 329.355469 1.265625 576.859375 C 1.265625 894.3125 259.53125 1152.585938 576.996094 1152.585938 C 894.457031 1152.585938 1152.726562 894.3125 1152.726562 576.859375 Z M 1152.726562 576.859375 " fill-opacity="1" fill-rule="nonzero"/></g><g clip-path="url(#651bb07808)"><path fill="#f8ab37" d="M 469.214844 109.171875 C 469.214844 49.753906 517.570312 1.410156 577 1.410156 C 636.414062 1.410156 684.757812 49.753906 684.757812 109.171875 C 684.757812 168.605469 636.414062 216.941406 577 216.941406 C 517.570312 216.941406 469.214844 168.605469 469.214844 109.171875 Z M 469.214844 109.171875 " fill-opacity="1" fill-rule="nonzero"/></g><g clip-path="url(#823e21a5d8)"><g clip-path="url(#3ef584cdd4)"><g transform="matrix(1, 0, 0, 1, 345, 345)"><g clip-path="url(#8eb096e7d1)"><g clip-path="url(#c24360ca69)"><g clip-path="url(#852d78a534)"><path fill="#38b6ff" d="M 0.792969 0.792969 L 463.207031 0.792969 L 463.207031 463.207031 L 0.792969 463.207031 Z M 0.792969 0.792969 " fill-opacity="1" fill-rule="nonzero"/></g></g></g></g></g></g></g></g></svg>